<?xml version="1.0" standalone="no"?>
<!DOCTYPE svg PUBLIC "-//W3C//DTD SVG 20010904//EN"
 "http://www.w3.org/TR/2001/REC-SVG-20010904/DTD/svg10.dtd">
<svg version="1.0" xmlns="http://www.w3.org/2000/svg"
 width="400.000000pt" height="400.000000pt" viewBox="0 0 400.000000 400.000000"
 preserveAspectRatio="xMidYMid meet">
<metadata>
Created by potrace 1.11, written by Peter Selinger 2001-2013
</metadata>
<g transform="translate(0.000000,400.000000) scale(0.100000,-0.100000)"
fill="#000000" stroke="none">
<path d="M79 3978 c-20 -11 -46 -38 -58 -58 l-21 -38 0 -1882 0 -1882 21 -38
c12 -21 38 -47 59 -59 l38 -21 1882 0 1882 0 38 21 c21 12 47 38 59 59 l21 38
0 1884 0 1885 -23 34 c-12 18 -38 44 -56 56 l-34 23 -1886 0 -1886 0 -36 -22z
m2128 -358 c386 -63 735 -322 916 -680 145 -288 170 -636 67 -951 -96 -293
-319 -562 -585 -705 -38 -20 -71 -38 -72 -39 -1 0 18 -163 42 -360 25 -198 45
-379 45 -401 0 -77 -42 -107 -173 -120 -77 -7 -117 5 -142 43 -12 18 -29 127
-60 374 -23 193 -44 352 -47 354 -2 2 -48 0 -101 -6 -64 -6 -130 -6 -194 0
-53 6 -98 9 -99 8 -1 -1 -20 -157 -43 -347 -24 -190 -48 -356 -54 -369 -7 -13
-24 -33 -39 -44 -26 -19 -34 -20 -122 -10 -106 13 -129 24 -152 71 -14 31 -12
56 30 405 26 205 46 377 46 383 0 6 -41 35 -91 64 -722 417 -855 1386 -272
1975 193 196 469 331 743 365 84 10 263 5 357 -10z"/>
<path d="M1734 3070 c-11 -4 -34 -24 -52 -44 -25 -29 -32 -46 -32 -79 l0 -43
-252 -140 c-138 -76 -264 -149 -279 -162 -47 -39 -48 -80 -3 -168 22 -41 51
-90 65 -107 24 -28 33 -32 75 -31 43 0 70 12 210 92 89 51 167 92 173 92 8 0
11 -68 11 -228 0 -225 0 -229 26 -280 32 -65 99 -125 173 -153 79 -32 213 -32
292 0 74 28 141 88 173 153 26 51 26 54 26 286 0 128 4 232 8 230 5 -1 87 -47
184 -100 117 -65 186 -98 207 -98 42 0 81 38 131 127 43 78 51 132 24 168 -8
11 -135 88 -282 170 l-267 150 -6 49 c-4 41 -12 55 -47 87 l-41 39 -248 -1
c-136 0 -257 -4 -269 -9z"/>
</g>
</svg>
